<svg width="75" height="75" viewBox="0 0 75 75" fill="none" xmlns="http://www.w3.org/2000/svg">
<circle cx="37.5" cy="37.5" r="37.5" fill="#D9D9D9"/>
<path d="M56.9595 35.442L39.5458 39.4082L28.0413 26.7408L22.1321 43.3743L51.0503 52.0756L56.9595 35.442ZM58.1414 32.1153L29.2231 23.4141L40.7336 36.0648L49.4375 34.0901L58.1414 32.1153Z" fill="#7C95F1"/>
<path d="M20.9499 46.7013L49.8681 55.4026C51.8562 56.0008 54.0147 54.9932 54.6647 53.1635L61.7557 33.2033C62.4058 31.3736 61.3109 29.3871 59.3228 28.7889L30.4046 20.0877C28.4164 19.4894 26.258 20.497 25.608 22.3267L18.5169 42.287C17.8669 44.1167 18.9617 46.1031 20.9499 46.7013ZM58.141 32.1156L40.7332 36.0651L29.2227 23.4144L58.141 32.1156ZM28.0409 26.7411L39.5454 39.4085L56.9591 35.4423L51.0499 52.0759L22.1317 43.3746L28.0409 26.7411Z" fill="#6C6C6C"/>
</svg>
