<svg width="34" height="31" viewBox="0 0 34 31" fill="none" xmlns="http://www.w3.org/2000/svg">
<path d="M16.7913 25.8522L16.625 26.0185L16.4421 25.8522C8.54525 18.6869 3.325 13.9487 3.325 9.14412C3.325 5.81912 5.81875 3.32537 9.14375 3.32537C11.704 3.32537 14.1978 4.98787 15.0789 7.24887H18.1711C19.0523 4.98787 21.546 3.32537 24.1063 3.32537C27.4313 3.32537 29.925 5.81912 29.925 9.14412C29.925 13.9487 24.7048 18.6869 16.7913 25.8522ZM24.1063 0.000366211C21.2135 0.000366211 18.4371 1.34699 16.625 3.45837C14.8129 1.34699 12.0365 0.000366211 9.14375 0.000366211C4.02325 0.000366211 0 4.00699 0 9.14412C0 15.4117 5.6525 20.5489 14.2144 28.3127L16.625 30.5072L19.0356 28.3127C27.5975 20.5489 33.25 15.4117 33.25 9.14412C33.25 4.00699 29.2268 0.000366211 24.1063 0.000366211Z" fill="#4367E9"/>
<path d="M18.382 14.5442C18.1929 14.1659 17.5753 14.1659 17.3862 14.5442L15.6616 17.999L15.044 16.7695C14.9984 16.6773 14.9278 16.5997 14.8403 16.5456C14.7528 16.4915 14.6518 16.4631 14.5489 16.4636H11.2109V17.5762H14.204L15.1609 19.4955C15.261 19.6847 15.4502 19.8015 15.6616 19.8015C15.873 19.8015 16.0621 19.6847 16.1567 19.4955L17.8869 16.0407L18.5044 17.2702C18.599 17.4594 18.7881 17.5762 18.9995 17.5762H22.3375V16.4636H19.3445L18.382 14.5442Z" fill="#4367E9"/>
<circle cx="25.4588" cy="8.30426" r="2.89869" stroke="#4367E9" stroke-width="0.843864"/>
<path d="M27.2162 7.79905V8.61299H23.9799V7.79905H27.2162ZM26.0424 6.51815V9.95551H25.1571V6.51815H26.0424Z" fill="#4367E9"/>
</svg>
